<?xml version="1.0" encoding="UTF-8"?>
<svg width="64.844mm" height="52.957mm" version="1.1" viewBox="0 0 64.844 52.957" xmlns="http://www.w3.org/2000/svg">
<g transform="translate(-54.743 -112.89)">
<g transform="matrix(.13969 0 0 .13883 31.037 107.8)">
<rect x="269.99" y="287.58" width="37.337" height="129.79" stroke-width="1.9"/>
<path d="m290.92 76.555-90.914 167.69h9.7188l-30.932 48.486h38.588l-47.68 59.6h242.44l-47.68-59.6h38.588l-30.932-48.486h9.7188z" color="#000000"/>
<g transform="translate(122.19 -39.847)">
<path d="m290.92 76.555-90.914 167.69h9.7188l-30.932 48.486h38.588l-47.68 59.6h242.44l-47.68-59.6h38.588l-30.932-48.486h9.7188z" color="#000000"/>
</g>
<g transform="translate(221.76 29.6)">
<path d="m290.92 76.555-90.914 167.69h9.7188l-30.932 48.486h38.588l-47.68 59.6h242.44l-47.68-59.6h38.588l-30.932-48.486h9.7188z" color="#000000"/>
</g>
<rect x="384.33" y="286.78" width="37.337" height="129.79" stroke-width="1.9"/>
<rect x="498.42" y="288.39" width="37.337" height="129.79" stroke-width="1.9"/>
</g>
</g>
</svg>
